<svg width="50" height="25" viewBox="0 0 50 25" fill="none" xmlns="http://www.w3.org/2000/svg">
<path d="M26.8311 7.40625H26.207V9H25.3838V4.73438H26.8135C27.0498 4.73438 27.2637 4.7627 27.4551 4.81934C27.6465 4.87402 27.8105 4.95508 27.9473 5.0625C28.082 5.16992 28.1855 5.30371 28.2578 5.46387C28.332 5.62402 28.3691 5.80957 28.3691 6.02051C28.3691 6.17285 28.3506 6.31055 28.3135 6.43359C28.2783 6.55469 28.2275 6.66309 28.1611 6.75879C28.0928 6.85645 28.0107 6.94141 27.915 7.01367C27.8213 7.08594 27.7158 7.14844 27.5986 7.20117L28.5156 8.96191V9H27.6338L26.8311 7.40625ZM26.207 6.73828H26.8164C26.9434 6.73828 27.0547 6.7207 27.1504 6.68555C27.248 6.64844 27.3271 6.5957 27.3877 6.52734C27.4385 6.47266 27.4766 6.40723 27.502 6.33105C27.5293 6.25488 27.543 6.16992 27.543 6.07617C27.543 5.96289 27.5254 5.86328 27.4902 5.77734C27.457 5.68945 27.4062 5.61719 27.3379 5.56055C27.2773 5.50977 27.2031 5.4707 27.1152 5.44336C27.0273 5.41602 26.9268 5.40234 26.8135 5.40234H26.207V6.73828ZM30.4434 6.7002L31.2842 4.73438H32.1895L30.8477 7.52344L30.8447 9H30.0244L30.0215 7.48828L28.7002 4.73438H29.6025L30.4434 6.7002ZM34.8057 7.88672C34.8057 7.81055 34.792 7.73926 34.7646 7.67285C34.7393 7.60645 34.6953 7.54395 34.6328 7.48535C34.5684 7.42871 34.4844 7.37695 34.3809 7.33008C34.2793 7.28125 34.1523 7.23633 34 7.19531C33.7637 7.13086 33.5557 7.05273 33.376 6.96094C33.1982 6.86914 33.0527 6.76855 32.9395 6.65918C32.8262 6.5498 32.7402 6.42871 32.6816 6.2959C32.625 6.16309 32.5967 6.01855 32.5967 5.8623C32.5967 5.68262 32.6348 5.51953 32.7109 5.37305C32.7871 5.22656 32.8926 5.10156 33.0273 4.99805C33.1621 4.89453 33.3213 4.81543 33.5049 4.76074C33.6885 4.7041 33.8877 4.67578 34.1025 4.67578C34.3252 4.67578 34.5283 4.70801 34.7119 4.77246C34.8975 4.83691 35.0566 4.92676 35.1895 5.04199C35.3223 5.15918 35.4258 5.29785 35.5 5.45801C35.5742 5.61816 35.6113 5.79395 35.6113 5.98535H34.8086C34.8047 5.88965 34.7871 5.80176 34.7559 5.72168C34.7266 5.6416 34.6826 5.57227 34.624 5.51367C34.5635 5.45703 34.4883 5.41309 34.3984 5.38184C34.3105 5.34863 34.207 5.33203 34.0879 5.33203C33.9785 5.33203 33.8809 5.3457 33.7949 5.37305C33.7109 5.39844 33.6396 5.43457 33.5811 5.48145C33.5225 5.53027 33.4775 5.58789 33.4463 5.6543C33.417 5.71875 33.4023 5.78906 33.4023 5.86523C33.4023 5.94531 33.4219 6.01758 33.4609 6.08203C33.502 6.14648 33.5605 6.2041 33.6367 6.25488C33.7129 6.30762 33.8047 6.35547 33.9121 6.39844C34.0215 6.44141 34.1445 6.48145 34.2812 6.51855C34.4277 6.55957 34.5674 6.60938 34.7002 6.66797C34.833 6.72656 34.9551 6.79395 35.0664 6.87012C35.2344 6.99512 35.3682 7.14062 35.4678 7.30664C35.5674 7.47266 35.6172 7.66406 35.6172 7.88086C35.6172 8.06836 35.5791 8.23535 35.5029 8.38184C35.4287 8.52637 35.3252 8.64844 35.1924 8.74805C35.0596 8.84961 34.9014 8.92676 34.7178 8.97949C34.5342 9.03027 34.334 9.05566 34.1172 9.05566C33.9043 9.05566 33.6934 9.02441 33.4844 8.96191C33.2773 8.89746 33.0967 8.80371 32.9424 8.68066C32.7959 8.55957 32.6797 8.41699 32.5938 8.25293C32.5098 8.08887 32.4678 7.89648 32.4678 7.67578H33.2764C33.2803 7.80469 33.3027 7.91504 33.3438 8.00684C33.3848 8.09863 33.4424 8.17383 33.5166 8.23242C33.5889 8.29102 33.6758 8.33398 33.7773 8.36133C33.8809 8.38867 33.9941 8.40234 34.1172 8.40234C34.2266 8.40234 34.3232 8.38965 34.4072 8.36426C34.4932 8.33887 34.5654 8.30371 34.624 8.25879C34.6826 8.21387 34.7275 8.16016 34.7588 8.09766C34.79 8.0332 34.8057 7.96289 34.8057 7.88672ZM39.3291 5.40527H38.0137V9H37.1875V5.40527H35.8896V4.73438H39.3291V5.40527ZM39.9795 4.73438H42.4463V5.39941H41.6143V8.33789H42.4463V9H39.9795V8.33789H40.791V5.39941H39.9795V4.73438ZM45.499 8.10938H44.2188L43.9668 9H43.0996L44.4971 4.73438H45.2441L46.6152 9H45.748L45.499 8.10938ZM44.4209 7.40918H45.3057L44.8691 5.83887L44.4209 7.40918ZM49.8174 9H48.9971L47.8105 6.24902V9H46.9814V4.73438H47.8105L48.9883 7.47363L48.9912 4.73438H49.8174V9ZM28.3604 13.1807C28.3604 13.3643 28.3438 13.5391 28.3105 13.7051C28.2773 13.8691 28.2295 14.0215 28.167 14.1621C28.1006 14.3027 28.0186 14.4316 27.9209 14.5488C27.8232 14.666 27.7119 14.7637 27.5869 14.8418C27.4736 14.9102 27.3486 14.9629 27.2119 15C27.0771 15.0391 26.9316 15.0586 26.7754 15.0586C26.6094 15.0586 26.4561 15.0371 26.3154 14.9941C26.1748 14.9512 26.0469 14.8906 25.9316 14.8125C25.8184 14.7305 25.7168 14.6318 25.627 14.5166C25.5371 14.3994 25.4619 14.2676 25.4014 14.1211C25.3467 13.9863 25.3047 13.8398 25.2754 13.6816C25.248 13.5234 25.2344 13.3564 25.2344 13.1807V12.5596C25.2344 12.3721 25.25 12.1943 25.2812 12.0264C25.3145 11.8584 25.3623 11.7031 25.4248 11.5605C25.4854 11.4258 25.5586 11.3037 25.6445 11.1943C25.7324 11.085 25.833 10.9912 25.9463 10.9131C26.0576 10.8369 26.1826 10.7783 26.3213 10.7373C26.46 10.6963 26.6104 10.6758 26.7725 10.6758C26.9365 10.6758 27.0898 10.6973 27.2324 10.7402C27.377 10.7812 27.5068 10.8408 27.6221 10.9189C27.7373 10.9932 27.8379 11.083 27.9238 11.1885C28.0117 11.2939 28.0869 11.4102 28.1494 11.5371C28.2178 11.6816 28.2695 11.8398 28.3047 12.0117C28.3418 12.1836 28.3604 12.3662 28.3604 12.5596V13.1807ZM27.5254 12.5537C27.5254 12.4443 27.5195 12.3408 27.5078 12.2432C27.498 12.1436 27.4814 12.0518 27.458 11.9678C27.4287 11.8623 27.3896 11.7686 27.3408 11.6865C27.292 11.6025 27.2344 11.5342 27.168 11.4814C27.1152 11.4424 27.0557 11.4121 26.9893 11.3906C26.9248 11.3691 26.8525 11.3584 26.7725 11.3584C26.6963 11.3584 26.627 11.3682 26.5645 11.3877C26.5039 11.4072 26.4492 11.4355 26.4004 11.4727C26.334 11.5273 26.2773 11.5957 26.2305 11.6777C26.1855 11.7598 26.1504 11.8555 26.125 11.9648C26.1055 12.0488 26.0908 12.1406 26.0811 12.2402C26.0732 12.3398 26.0693 12.4443 26.0693 12.5537V13.1807C26.0693 13.2842 26.0732 13.3838 26.0811 13.4795C26.0889 13.5752 26.1025 13.6641 26.1221 13.7461C26.1436 13.8496 26.1748 13.9443 26.2158 14.0303C26.2588 14.1143 26.3086 14.1826 26.3652 14.2354C26.418 14.2822 26.4775 14.3184 26.5439 14.3438C26.6123 14.3691 26.6895 14.3818 26.7754 14.3818C26.8574 14.3818 26.9326 14.3701 27.001 14.3467C27.0693 14.3232 27.1299 14.2891 27.1826 14.2441C27.249 14.1895 27.3047 14.1211 27.3496 14.0391C27.3965 13.9551 27.4336 13.8604 27.4609 13.7549C27.4824 13.6729 27.498 13.583 27.5078 13.4854C27.5195 13.3877 27.5254 13.2861 27.5254 13.1807V12.5537ZM31.6943 13.2334H29.8662V15H29.04V10.7344H31.9229V11.4053H29.8662V12.5654H31.6943V13.2334ZM35.7256 11.4053H34.4102V15H33.584V11.4053H32.2861V10.7344H35.7256V11.4053ZM36.4727 15L35.8867 10.7344H36.6396L36.9238 13.1191L36.9443 13.2861L36.9707 13.1104L37.3076 10.7344H37.8965L38.2539 13.1279L38.2803 13.3037L38.3008 13.125L38.5908 10.7344H39.3467L38.7549 15H38.0107L37.6387 12.6973L37.6064 12.4805L37.5742 12.6973L37.2168 15H36.4727ZM41.8955 14.1094H40.6152L40.3633 15H39.4961L40.8936 10.7344H41.6406L43.0117 15H42.1445L41.8955 14.1094ZM40.8174 13.4092H41.7021L41.2656 11.8389L40.8174 13.4092ZM44.8486 13.4062H44.2246V15H43.4014V10.7344H44.8311C45.0674 10.7344 45.2812 10.7627 45.4727 10.8193C45.6641 10.874 45.8281 10.9551 45.9648 11.0625C46.0996 11.1699 46.2031 11.3037 46.2754 11.4639C46.3496 11.624 46.3867 11.8096 46.3867 12.0205C46.3867 12.1729 46.3682 12.3105 46.3311 12.4336C46.2959 12.5547 46.2451 12.6631 46.1787 12.7588C46.1104 12.8564 46.0283 12.9414 45.9326 13.0137C45.8389 13.0859 45.7334 13.1484 45.6162 13.2012L46.5332 14.9619V15H45.6514L44.8486 13.4062ZM44.2246 12.7383H44.834C44.9609 12.7383 45.0723 12.7207 45.168 12.6855C45.2656 12.6484 45.3447 12.5957 45.4053 12.5273C45.4561 12.4727 45.4941 12.4072 45.5195 12.3311C45.5469 12.2549 45.5605 12.1699 45.5605 12.0762C45.5605 11.9629 45.543 11.8633 45.5078 11.7773C45.4746 11.6895 45.4238 11.6172 45.3555 11.5605C45.2949 11.5098 45.2207 11.4707 45.1328 11.4434C45.0449 11.416 44.9443 11.4023 44.8311 11.4023H44.2246V12.7383ZM49.6299 13.1309H47.8779V14.335H49.9258V15H47.0518V10.7344H49.917V11.4053H47.8779V12.4805H49.6299V13.1309ZM28.3604 19.1807C28.3604 19.3643 28.3438 19.5391 28.3105 19.7051C28.2773 19.8691 28.2295 20.0215 28.167 20.1621C28.1006 20.3027 28.0186 20.4316 27.9209 20.5488C27.8232 20.666 27.7119 20.7637 27.5869 20.8418C27.4736 20.9102 27.3486 20.9629 27.2119 21C27.0771 21.0391 26.9316 21.0586 26.7754 21.0586C26.6094 21.0586 26.4561 21.0371 26.3154 20.9941C26.1748 20.9512 26.0469 20.8906 25.9316 20.8125C25.8184 20.7305 25.7168 20.6318 25.627 20.5166C25.5371 20.3994 25.4619 20.2676 25.4014 20.1211C25.3467 19.9863 25.3047 19.8398 25.2754 19.6816C25.248 19.5234 25.2344 19.3564 25.2344 19.1807V18.5596C25.2344 18.3721 25.25 18.1943 25.2812 18.0264C25.3145 17.8584 25.3623 17.7031 25.4248 17.5605C25.4854 17.4258 25.5586 17.3037 25.6445 17.1943C25.7324 17.085 25.833 16.9912 25.9463 16.9131C26.0576 16.8369 26.1826 16.7783 26.3213 16.7373C26.46 16.6963 26.6104 16.6758 26.7725 16.6758C26.9365 16.6758 27.0898 16.6973 27.2324 16.7402C27.377 16.7812 27.5068 16.8408 27.6221 16.9189C27.7373 16.9932 27.8379 17.083 27.9238 17.1885C28.0117 17.2939 28.0869 17.4102 28.1494 17.5371C28.2178 17.6816 28.2695 17.8398 28.3047 18.0117C28.3418 18.1836 28.3604 18.3662 28.3604 18.5596V19.1807ZM27.5254 18.5537C27.5254 18.4443 27.5195 18.3408 27.5078 18.2432C27.498 18.1436 27.4814 18.0518 27.458 17.9678C27.4287 17.8623 27.3896 17.7686 27.3408 17.6865C27.292 17.6025 27.2344 17.5342 27.168 17.4814C27.1152 17.4424 27.0557 17.4121 26.9893 17.3906C26.9248 17.3691 26.8525 17.3584 26.7725 17.3584C26.6963 17.3584 26.627 17.3682 26.5645 17.3877C26.5039 17.4072 26.4492 17.4355 26.4004 17.4727C26.334 17.5273 26.2773 17.5957 26.2305 17.6777C26.1855 17.7598 26.1504 17.8555 26.125 17.9648C26.1055 18.0488 26.0908 18.1406 26.0811 18.2402C26.0732 18.3398 26.0693 18.4443 26.0693 18.5537V19.1807C26.0693 19.2842 26.0732 19.3838 26.0811 19.4795C26.0889 19.5752 26.1025 19.6641 26.1221 19.7461C26.1436 19.8496 26.1748 19.9443 26.2158 20.0303C26.2588 20.1143 26.3086 20.1826 26.3652 20.2354C26.418 20.2822 26.4775 20.3184 26.5439 20.3438C26.6123 20.3691 26.6895 20.3818 26.7754 20.3818C26.8574 20.3818 26.9326 20.3701 27.001 20.3467C27.0693 20.3232 27.1299 20.2891 27.1826 20.2441C27.249 20.1895 27.3047 20.1211 27.3496 20.0391C27.3965 19.9551 27.4336 19.8604 27.4609 19.7549C27.4824 19.6729 27.498 19.583 27.5078 19.4854C27.5195 19.3877 27.5254 19.2861 27.5254 19.1807V18.5537ZM31.8291 16.7344L31.832 19.5615C31.832 19.7998 31.7988 20.0117 31.7324 20.1973C31.668 20.3828 31.5742 20.5391 31.4512 20.666C31.3262 20.7949 31.1738 20.8926 30.9941 20.959C30.8164 21.0254 30.6133 21.0586 30.3848 21.0586C30.1699 21.0586 29.9756 21.0254 29.8018 20.959C29.6299 20.8926 29.4824 20.7959 29.3594 20.6689C29.2363 20.542 29.1406 20.3857 29.0723 20.2002C29.0059 20.0127 28.9727 19.7998 28.9727 19.5615L28.9756 16.7344H29.7988L29.8018 19.5615C29.8037 19.7041 29.8174 19.8291 29.8428 19.9365C29.8701 20.0439 29.9102 20.1328 29.9629 20.2031C30.0117 20.2676 30.0713 20.3164 30.1416 20.3496C30.2119 20.3809 30.293 20.3965 30.3848 20.3965C30.4844 20.3965 30.5723 20.3799 30.6484 20.3467C30.7266 20.3115 30.791 20.2598 30.8418 20.1914C30.8965 20.1211 30.9375 20.0332 30.9648 19.9277C30.9922 19.8223 31.0068 19.7002 31.0088 19.5615L31.0117 16.7344H31.8291ZM34.8057 19.8867C34.8057 19.8105 34.792 19.7393 34.7646 19.6729C34.7393 19.6064 34.6953 19.5439 34.6328 19.4854C34.5684 19.4287 34.4844 19.377 34.3809 19.3301C34.2793 19.2812 34.1523 19.2363 34 19.1953C33.7637 19.1309 33.5557 19.0527 33.376 18.9609C33.1982 18.8691 33.0527 18.7686 32.9395 18.6592C32.8262 18.5498 32.7402 18.4287 32.6816 18.2959C32.625 18.1631 32.5967 18.0186 32.5967 17.8623C32.5967 17.6826 32.6348 17.5195 32.7109 17.373C32.7871 17.2266 32.8926 17.1016 33.0273 16.998C33.1621 16.8945 33.3213 16.8154 33.5049 16.7607C33.6885 16.7041 33.8877 16.6758 34.1025 16.6758C34.3252 16.6758 34.5283 16.708 34.7119 16.7725C34.8975 16.8369 35.0566 16.9268 35.1895 17.042C35.3223 17.1592 35.4258 17.2979 35.5 17.458C35.5742 17.6182 35.6113 17.7939 35.6113 17.9854H34.8086C34.8047 17.8896 34.7871 17.8018 34.7559 17.7217C34.7266 17.6416 34.6826 17.5723 34.624 17.5137C34.5635 17.457 34.4883 17.4131 34.3984 17.3818C34.3105 17.3486 34.207 17.332 34.0879 17.332C33.9785 17.332 33.8809 17.3457 33.7949 17.373C33.7109 17.3984 33.6396 17.4346 33.5811 17.4814C33.5225 17.5303 33.4775 17.5879 33.4463 17.6543C33.417 17.7188 33.4023 17.7891 33.4023 17.8652C33.4023 17.9453 33.4219 18.0176 33.4609 18.082C33.502 18.1465 33.5605 18.2041 33.6367 18.2549C33.7129 18.3076 33.8047 18.3555 33.9121 18.3984C34.0215 18.4414 34.1445 18.4814 34.2812 18.5186C34.4277 18.5596 34.5674 18.6094 34.7002 18.668C34.833 18.7266 34.9551 18.7939 35.0664 18.8701C35.2344 18.9951 35.3682 19.1406 35.4678 19.3066C35.5674 19.4727 35.6172 19.6641 35.6172 19.8809C35.6172 20.0684 35.5791 20.2354 35.5029 20.3818C35.4287 20.5264 35.3252 20.6484 35.1924 20.748C35.0596 20.8496 34.9014 20.9268 34.7178 20.9795C34.5342 21.0303 34.334 21.0557 34.1172 21.0557C33.9043 21.0557 33.6934 21.0244 33.4844 20.9619C33.2773 20.8975 33.0967 20.8037 32.9424 20.6807C32.7959 20.5596 32.6797 20.417 32.5938 20.2529C32.5098 20.0889 32.4678 19.8965 32.4678 19.6758H33.2764C33.2803 19.8047 33.3027 19.915 33.3438 20.0068C33.3848 20.0986 33.4424 20.1738 33.5166 20.2324C33.5889 20.291 33.6758 20.334 33.7773 20.3613C33.8809 20.3887 33.9941 20.4023 34.1172 20.4023C34.2266 20.4023 34.3232 20.3896 34.4072 20.3643C34.4932 20.3389 34.5654 20.3037 34.624 20.2588C34.6826 20.2139 34.7275 20.1602 34.7588 20.0977C34.79 20.0332 34.8057 19.9629 34.8057 19.8867ZM38.8193 19.1309H37.0674V20.335H39.1152V21H36.2412V16.7344H39.1064V17.4053H37.0674V18.4805H38.8193V19.1309Z" fill="white"/>
<path d="M0 2C0 0.89543 0.895431 0 2 0H23C24.1046 0 25 0.895431 25 2V23C25 24.1046 24.1046 25 23 25H2C0.89543 25 0 24.1046 0 23V2Z" fill="white"/>
<path d="M22.6553 7.24805L22.2041 7.74316V9H21.3779V4.73438H22.2041V6.68848L22.5908 6.16699L23.6279 4.73438H24.6357L23.2002 6.62109L24.6885 9H23.71L22.6553 7.24805ZM23.5986 13.8867C23.5986 13.8105 23.585 13.7393 23.5576 13.6729C23.5322 13.6064 23.4883 13.5439 23.4258 13.4854C23.3613 13.4287 23.2773 13.377 23.1738 13.3301C23.0723 13.2812 22.9453 13.2363 22.793 13.1953C22.5566 13.1309 22.3486 13.0527 22.1689 12.9609C21.9912 12.8691 21.8457 12.7686 21.7324 12.6592C21.6191 12.5498 21.5332 12.4287 21.4746 12.2959C21.418 12.1631 21.3896 12.0186 21.3896 11.8623C21.3896 11.6826 21.4277 11.5195 21.5039 11.373C21.5801 11.2266 21.6855 11.1016 21.8203 10.998C21.9551 10.8945 22.1143 10.8154 22.2979 10.7607C22.4814 10.7041 22.6807 10.6758 22.8955 10.6758C23.1182 10.6758 23.3213 10.708 23.5049 10.7725C23.6904 10.8369 23.8496 10.9268 23.9824 11.042C24.1152 11.1592 24.2188 11.2979 24.293 11.458C24.3672 11.6182 24.4043 11.7939 24.4043 11.9854H23.6016C23.5977 11.8896 23.5801 11.8018 23.5488 11.7217C23.5195 11.6416 23.4756 11.5723 23.417 11.5137C23.3564 11.457 23.2812 11.4131 23.1914 11.3818C23.1035 11.3486 23 11.332 22.8809 11.332C22.7715 11.332 22.6738 11.3457 22.5879 11.373C22.5039 11.3984 22.4326 11.4346 22.374 11.4814C22.3154 11.5303 22.2705 11.5879 22.2393 11.6543C22.21 11.7188 22.1953 11.7891 22.1953 11.8652C22.1953 11.9453 22.2148 12.0176 22.2539 12.082C22.2949 12.1465 22.3535 12.2041 22.4297 12.2549C22.5059 12.3076 22.5977 12.3555 22.7051 12.3984C22.8145 12.4414 22.9375 12.4814 23.0742 12.5186C23.2207 12.5596 23.3604 12.6094 23.4932 12.668C23.626 12.7266 23.748 12.7939 23.8594 12.8701C24.0273 12.9951 24.1611 13.1406 24.2607 13.3066C24.3604 13.4727 24.4102 13.6641 24.4102 13.8809C24.4102 14.0684 24.3721 14.2354 24.2959 14.3818C24.2217 14.5264 24.1182 14.6484 23.9854 14.748C23.8525 14.8496 23.6943 14.9268 23.5107 14.9795C23.3271 15.0303 23.127 15.0557 22.9102 15.0557C22.6973 15.0557 22.4863 15.0244 22.2773 14.9619C22.0703 14.8975 21.8896 14.8037 21.7354 14.6807C21.5889 14.5596 21.4727 14.417 21.3867 14.2529C21.3027 14.0889 21.2607 13.8965 21.2607 13.6758H22.0693C22.0732 13.8047 22.0957 13.915 22.1367 14.0068C22.1777 14.0986 22.2354 14.1738 22.3096 14.2324C22.3818 14.291 22.4688 14.334 22.5703 14.3613C22.6738 14.3887 22.7871 14.4023 22.9102 14.4023C23.0195 14.4023 23.1162 14.3896 23.2002 14.3643C23.2861 14.3389 23.3584 14.3037 23.417 14.2588C23.4756 14.2139 23.5205 14.1602 23.5518 14.0977C23.583 14.0332 23.5986 13.9629 23.5986 13.8867ZM24.1992 21H23.3848V19.1514H22.1777V21H21.3604V16.7344H22.1777V18.4834H23.3848V16.7344H24.1992V21Z" fill="#1E1E1E"/>
<rect x="3" width="2" height="25" fill="#1E1E1E"/>
</svg>
