<svg width="257" height="17" viewBox="0 0 257 17" fill="none" xmlns="http://www.w3.org/2000/svg">
<path d="M0.81 14V2.408H4.194V6.494L7.704 2.408H11.556L7.47 7.16L11.844 14H8.244L5.382 9.32L4.194 10.652V14H0.81ZM13.0971 14V2.408H19.1271C20.0751 2.408 20.8491 2.582 21.4491 2.93C22.0611 3.278 22.5171 3.764 22.8171 4.388C23.1171 5 23.2671 5.714 23.2671 6.53C23.2671 7.31 23.0691 8 22.6731 8.6C22.2891 9.188 21.7731 9.638 21.1251 9.95C21.2571 10.058 21.3711 10.19 21.4671 10.346C21.5631 10.49 21.6711 10.694 21.7911 10.958L23.1231 14H19.5951L18.3711 11.21C18.2751 10.994 18.1551 10.844 18.0111 10.76C17.8791 10.664 17.6871 10.616 17.4351 10.616H16.4811V14H13.0971ZM16.4811 8.024H18.2631C18.7551 8.024 19.1331 7.898 19.3971 7.646C19.6731 7.382 19.8111 7.01 19.8111 6.53C19.8111 5.51 19.3311 5 18.3711 5H16.4811V8.024ZM27.1612 14V9.752L22.9852 2.408H26.5132L28.8532 6.782L31.1932 2.408H34.7212L30.5452 9.752V14H27.1612ZM38.6041 14.18C37.8241 14.18 37.0861 14.12 36.3901 14C35.6941 13.868 35.1001 13.688 34.6081 13.46V10.67C35.1481 10.922 35.7481 11.126 36.4081 11.282C37.0681 11.438 37.6861 11.516 38.2621 11.516C38.8621 11.516 39.3121 11.468 39.6121 11.372C39.9241 11.264 40.0801 11.03 40.0801 10.67C40.0801 10.418 39.9901 10.22 39.8101 10.076C39.6421 9.932 39.3721 9.8 39.0001 9.68C38.6401 9.56 38.1661 9.41 37.5781 9.23C36.7981 8.978 36.1801 8.702 35.7241 8.402C35.2681 8.102 34.9381 7.736 34.7341 7.304C34.5421 6.872 34.4461 6.344 34.4461 5.72C34.4461 4.58 34.8481 3.716 35.6521 3.128C36.4681 2.528 37.6741 2.228 39.2701 2.228C39.9061 2.228 40.5601 2.282 41.2321 2.39C41.9161 2.498 42.4681 2.618 42.8881 2.75V5.558C42.3241 5.33 41.7841 5.168 41.2681 5.072C40.7521 4.976 40.2661 4.928 39.8101 4.928C39.2821 4.928 38.8321 4.97 38.4601 5.054C38.0881 5.138 37.9021 5.354 37.9021 5.702C37.9021 6.002 38.0581 6.224 38.3701 6.368C38.6941 6.5 39.2641 6.674 40.0801 6.89C41.0281 7.142 41.7481 7.448 42.2401 7.808C42.7441 8.168 43.0861 8.588 43.2661 9.068C43.4461 9.536 43.5361 10.07 43.5361 10.67C43.5361 11.726 43.1281 12.578 42.3121 13.226C41.4961 13.862 40.2601 14.18 38.6041 14.18ZM47.3285 14V4.928H44.0705V2.408H53.9705V4.928H50.7125V14H47.3285ZM54.8627 14V2.408H58.2467V14H54.8627ZM59.5125 14L63.9585 2.408H67.5405L71.9865 14H68.4585L67.4865 11.534H63.9945L63.0405 14H59.5125ZM64.4445 9.104H67.0365L65.7405 5.702L64.4445 9.104ZM73.2495 14V2.408H76.1295L80.5035 8.546V2.408H83.8875V14H80.9895L76.6335 7.88V14H73.2495ZM100.971 14.18C100.191 14.18 99.4533 14.12 98.7573 14C98.0613 13.868 97.4673 13.688 96.9753 13.46V10.67C97.5153 10.922 98.1153 11.126 98.7753 11.282C99.4353 11.438 100.053 11.516 100.629 11.516C101.229 11.516 101.679 11.468 101.979 11.372C102.291 11.264 102.447 11.03 102.447 10.67C102.447 10.418 102.357 10.22 102.177 10.076C102.009 9.932 101.739 9.8 101.367 9.68C101.007 9.56 100.533 9.41 99.9453 9.23C99.1653 8.978 98.5473 8.702 98.0913 8.402C97.6353 8.102 97.3053 7.736 97.1013 7.304C96.9093 6.872 96.8133 6.344 96.8133 5.72C96.8133 4.58 97.2153 3.716 98.0193 3.128C98.8353 2.528 100.041 2.228 101.637 2.228C102.273 2.228 102.927 2.282 103.599 2.39C104.283 2.498 104.835 2.618 105.255 2.75V5.558C104.691 5.33 104.151 5.168 103.635 5.072C103.119 4.976 102.633 4.928 102.177 4.928C101.649 4.928 101.199 4.97 100.827 5.054C100.455 5.138 100.269 5.354 100.269 5.702C100.269 6.002 100.425 6.224 100.737 6.368C101.061 6.5 101.631 6.674 102.447 6.89C103.395 7.142 104.115 7.448 104.607 7.808C105.111 8.168 105.453 8.588 105.633 9.068C105.813 9.536 105.903 10.07 105.903 10.67C105.903 11.726 105.495 12.578 104.679 13.226C103.863 13.862 102.627 14.18 100.971 14.18ZM112.72 14.18C110.8 14.18 109.33 13.712 108.31 12.776C107.302 11.84 106.798 10.328 106.798 8.24C106.798 6.8 107.026 5.642 107.482 4.766C107.938 3.878 108.604 3.236 109.48 2.84C110.368 2.432 111.448 2.228 112.72 2.228C113.992 2.228 115.066 2.432 115.942 2.84C116.83 3.236 117.502 3.878 117.958 4.766C118.414 5.642 118.642 6.8 118.642 8.24C118.642 10.328 118.132 11.84 117.112 12.776C116.092 13.712 114.628 14.18 112.72 14.18ZM112.72 11.3C113.584 11.3 114.208 11.06 114.592 10.58C114.988 10.088 115.186 9.308 115.186 8.24C115.186 7.1 114.988 6.296 114.592 5.828C114.208 5.348 113.584 5.108 112.72 5.108C111.856 5.108 111.226 5.348 110.83 5.828C110.446 6.296 110.254 7.1 110.254 8.24C110.254 9.308 110.446 10.088 110.83 10.58C111.226 11.06 111.856 11.3 112.72 11.3ZM119.902 14V2.408H128.614V4.928H123.286V6.926H127.93V9.482H123.286V14H119.902ZM132.055 14V4.928H128.797V2.408H138.697V4.928H135.439V14H132.055ZM141.666 14L138.966 2.408H142.278L143.592 8.546L144.87 4.154V2.408H147.642L149.406 8.564L150.792 2.408H154.104L151.422 14H148.362L146.616 8.006L144.726 14H141.666ZM153.292 14L157.738 2.408H161.32L165.766 14H162.238L161.266 11.534H157.774L156.82 14H153.292ZM158.224 9.104H160.816L159.52 5.702L158.224 9.104ZM167.029 14V2.408H173.059C174.007 2.408 174.781 2.582 175.381 2.93C175.993 3.278 176.449 3.764 176.749 4.388C177.049 5 177.199 5.714 177.199 6.53C177.199 7.31 177.001 8 176.605 8.6C176.221 9.188 175.705 9.638 175.057 9.95C175.189 10.058 175.303 10.19 175.399 10.346C175.495 10.49 175.603 10.694 175.723 10.958L177.055 14H173.527L172.303 11.21C172.207 10.994 172.087 10.844 171.943 10.76C171.811 10.664 171.619 10.616 171.367 10.616H170.413V14H167.029ZM170.413 8.024H172.195C172.687 8.024 173.065 7.898 173.329 7.646C173.605 7.382 173.743 7.01 173.743 6.53C173.743 5.51 173.263 5 172.303 5H170.413V8.024ZM178.455 14V2.408H187.239V5H181.839V6.89H186.573V9.518H181.839V11.408H187.239V14H178.455ZM199.988 14V2.408H203.372V6.728H207.368V2.408H210.752V14H207.368V9.68H203.372V14H199.988ZM217.942 14.18C216.022 14.18 214.552 13.712 213.532 12.776C212.524 11.84 212.02 10.328 212.02 8.24C212.02 6.8 212.248 5.642 212.704 4.766C213.16 3.878 213.826 3.236 214.702 2.84C215.59 2.432 216.67 2.228 217.942 2.228C219.214 2.228 220.288 2.432 221.164 2.84C222.052 3.236 222.724 3.878 223.18 4.766C223.636 5.642 223.864 6.8 223.864 8.24C223.864 10.328 223.354 11.84 222.334 12.776C221.314 13.712 219.85 14.18 217.942 14.18ZM217.942 11.3C218.806 11.3 219.43 11.06 219.814 10.58C220.21 10.088 220.408 9.308 220.408 8.24C220.408 7.1 220.21 6.296 219.814 5.828C219.43 5.348 218.806 5.108 217.942 5.108C217.078 5.108 216.448 5.348 216.052 5.828C215.668 6.296 215.476 7.1 215.476 8.24C215.476 9.308 215.668 10.088 216.052 10.58C216.448 11.06 217.078 11.3 217.942 11.3ZM230.524 14.18C229.444 14.18 228.49 14.006 227.662 13.658C226.846 13.298 226.204 12.776 225.736 12.092C225.268 11.396 225.034 10.544 225.034 9.536V2.408H228.418V9.176C228.418 10.592 229.12 11.3 230.524 11.3C231.196 11.3 231.712 11.126 232.072 10.778C232.432 10.43 232.612 9.896 232.612 9.176V2.408H235.996V9.536C235.996 10.544 235.762 11.396 235.294 12.092C234.838 12.776 234.196 13.298 233.368 13.658C232.552 14.006 231.604 14.18 230.524 14.18ZM241.333 14.18C240.553 14.18 239.815 14.12 239.119 14C238.423 13.868 237.829 13.688 237.337 13.46V10.67C237.877 10.922 238.477 11.126 239.137 11.282C239.797 11.438 240.415 11.516 240.991 11.516C241.591 11.516 242.041 11.468 242.341 11.372C242.653 11.264 242.809 11.03 242.809 10.67C242.809 10.418 242.719 10.22 242.539 10.076C242.371 9.932 242.101 9.8 241.729 9.68C241.369 9.56 240.895 9.41 240.307 9.23C239.527 8.978 238.909 8.702 238.453 8.402C237.997 8.102 237.667 7.736 237.463 7.304C237.271 6.872 237.175 6.344 237.175 5.72C237.175 4.58 237.577 3.716 238.381 3.128C239.197 2.528 240.403 2.228 241.999 2.228C242.635 2.228 243.289 2.282 243.961 2.39C244.645 2.498 245.197 2.618 245.617 2.75V5.558C245.053 5.33 244.513 5.168 243.997 5.072C243.481 4.976 242.995 4.928 242.539 4.928C242.011 4.928 241.561 4.97 241.189 5.054C240.817 5.138 240.631 5.354 240.631 5.702C240.631 6.002 240.787 6.224 241.099 6.368C241.423 6.5 241.993 6.674 242.809 6.89C243.757 7.142 244.477 7.448 244.969 7.808C245.473 8.168 245.815 8.588 245.995 9.068C246.175 9.536 246.265 10.07 246.265 10.67C246.265 11.726 245.857 12.578 245.041 13.226C244.225 13.862 242.989 14.18 241.333 14.18ZM247.519 14V2.408H256.303V5H250.903V6.89H255.637V9.518H250.903V11.408H256.303V14H247.519Z" fill="#1E1E1E"/>
<path d="M88.8328 16.16V0.77H92.2168V16.16H88.8328ZM191.647 16.16V0.77H195.031V16.16H191.647Z" fill="#D3A634"/>
</svg>
