<svg width="111" height="51" viewBox="0 0 111 51" fill="none" xmlns="http://www.w3.org/2000/svg">
<path d="M0 5C0 2.23858 2.23858 0 5 0H46C48.7614 0 51 2.23858 51 5V46C51 48.7614 48.7614 51 46 51H5C2.23858 51 0 48.7614 0 46V5Z" fill="#1E1E1E"/>
<rect x="6" width="5" height="51" fill="white"/>
<path d="M58.602 16H56.754V13.06C56.754 12.836 56.6933 12.654 56.572 12.514C56.46 12.374 56.2687 12.304 55.998 12.304H53.87V16H52.022V6.2H55.774C56.278 6.2 56.7213 6.27 57.104 6.41C57.4867 6.55 57.804 6.746 58.056 6.998C58.3173 7.24067 58.5133 7.52533 58.644 7.852C58.784 8.17867 58.854 8.52867 58.854 8.902V9.238C58.854 9.63933 58.7467 10.0173 58.532 10.372C58.3173 10.7173 57.986 10.9833 57.538 11.17V11.422C57.8647 11.4593 58.1213 11.5853 58.308 11.8C58.504 12.0147 58.602 12.2853 58.602 12.612V16ZM53.87 10.54H55.634C56.082 10.54 56.4227 10.4373 56.656 10.232C56.8893 10.0173 57.006 9.71867 57.006 9.336V9.168C57.006 8.84133 56.8893 8.56133 56.656 8.328C56.4227 8.08533 56.082 7.964 55.634 7.964H53.87V10.54ZM62.9323 12.556H62.5123L59.6983 6.2H61.7143L63.7303 10.876H63.9823L65.9983 6.2H68.0143L65.2003 12.556H64.7803V16H62.9323V12.556ZM74.1085 9.196C74.1085 8.804 73.9545 8.46333 73.6465 8.174C73.3479 7.88467 72.9232 7.74 72.3725 7.74C71.9059 7.74 71.5372 7.838 71.2665 8.034C70.9959 8.22067 70.8605 8.47733 70.8605 8.804C70.8605 8.972 70.8932 9.126 70.9585 9.266C71.0239 9.39667 71.1359 9.518 71.2945 9.63C71.4625 9.73267 71.6772 9.826 71.9385 9.91C72.2092 9.994 72.5499 10.0733 72.9605 10.148C73.9872 10.3347 74.7712 10.6473 75.3125 11.086C75.8539 11.5247 76.1245 12.1733 76.1245 13.032V13.2C76.1245 13.6573 76.0405 14.0727 75.8725 14.446C75.7139 14.81 75.4805 15.1227 75.1725 15.384C74.8645 15.6453 74.4912 15.846 74.0525 15.986C73.6139 16.126 73.1192 16.196 72.5685 16.196C71.9245 16.196 71.3552 16.1073 70.8605 15.93C70.3752 15.7433 69.9692 15.4913 69.6425 15.174C69.3159 14.8473 69.0685 14.4693 68.9005 14.04C68.7325 13.6013 68.6485 13.1253 68.6485 12.612V12.192H70.4965V12.528C70.4965 13.116 70.6645 13.5873 71.0005 13.942C71.3459 14.2873 71.8779 14.46 72.5965 14.46C73.1565 14.46 73.5719 14.3387 73.8425 14.096C74.1132 13.8533 74.2485 13.564 74.2485 13.228C74.2485 13.0693 74.2205 12.92 74.1645 12.78C74.1085 12.6307 74.0105 12.5 73.8705 12.388C73.7305 12.2667 73.5392 12.1593 73.2965 12.066C73.0539 11.9727 72.7459 11.8933 72.3725 11.828C71.8779 11.744 71.4252 11.6367 71.0145 11.506C70.6039 11.366 70.2445 11.184 69.9365 10.96C69.6379 10.736 69.4045 10.456 69.2365 10.12C69.0685 9.784 68.9845 9.37333 68.9845 8.888V8.804C68.9845 8.40267 69.0639 8.034 69.2225 7.698C69.3905 7.35267 69.6192 7.054 69.9085 6.802C70.2072 6.55 70.5619 6.354 70.9725 6.214C71.3925 6.074 71.8592 6.004 72.3725 6.004C72.9512 6.004 73.4645 6.088 73.9125 6.256C74.3605 6.41467 74.7339 6.634 75.0325 6.914C75.3405 7.194 75.5692 7.516 75.7185 7.88C75.8772 8.244 75.9565 8.62667 75.9565 9.028V9.532H74.1085V9.196ZM77.4728 6.2H84.5288V7.964H81.9248V16H80.0768V7.964H77.4728V6.2ZM86.2971 6.2H92.8491V7.964H90.4971V14.236H92.8491V16H86.2971V14.236H88.6491V7.964H86.2971V6.2ZM99.8113 13.9H96.4793L96.0033 16H94.0713L96.4093 6.2H99.8813L102.219 16H100.287L99.8113 13.9ZM96.8713 12.136H99.4053L98.2713 7.124H98.0193L96.8713 12.136ZM108.048 15.076H108.3V6.2H110.148V16H106.536L105.388 7.124H105.136V16H103.288V6.2H106.9L108.048 15.076ZM51.672 25.008C51.672 23.7387 51.9893 22.754 52.624 22.054C53.268 21.354 54.1547 21.004 55.284 21.004C56.4133 21.004 57.2953 21.354 57.93 22.054C58.574 22.754 58.896 23.7387 58.896 25.008V27.192C58.896 28.4987 58.574 29.4927 57.93 30.174C57.2953 30.8553 56.4133 31.196 55.284 31.196C54.1547 31.196 53.268 30.8553 52.624 30.174C51.9893 29.4927 51.672 28.4987 51.672 27.192V25.008ZM55.284 29.516C55.62 29.516 55.9 29.4647 56.124 29.362C56.348 29.25 56.53 29.096 56.67 28.9C56.81 28.704 56.908 28.4707 56.964 28.2C57.02 27.9293 57.048 27.6307 57.048 27.304V24.896C57.048 24.588 57.0153 24.2987 56.95 24.028C56.8847 23.7573 56.782 23.524 56.642 23.328C56.502 23.132 56.32 22.978 56.096 22.866C55.872 22.7447 55.6013 22.684 55.284 22.684C54.9667 22.684 54.696 22.7447 54.472 22.866C54.248 22.978 54.066 23.132 53.926 23.328C53.786 23.524 53.6833 23.7573 53.618 24.028C53.5527 24.2987 53.52 24.588 53.52 24.896V27.304C53.52 27.6307 53.548 27.9293 53.604 28.2C53.66 28.4707 53.758 28.704 53.898 28.9C54.038 29.096 54.22 29.25 54.444 29.362C54.668 29.4647 54.948 29.516 55.284 29.516ZM60.8043 21.2H67.0763V22.964H62.6523V25.204H66.9923V26.968H62.6523V31H60.8043V21.2ZM68.9005 21.2H75.9565V22.964H73.3525V31H71.5045V22.964H68.9005V21.2ZM84.8368 31H81.6168L81.1688 23.552V22.208H80.8328V23.552L80.3848 31H77.1648L76.8288 21.2H78.5088L78.7328 28.648V29.908H79.0688V28.648L79.5168 21.2H82.4848L82.9328 28.648V29.908H83.2688V28.648L83.4928 21.2H85.1728L84.8368 31ZM91.2391 28.9H87.9071L87.4311 31H85.4991L87.8371 21.2H91.3091L93.6471 31H91.7151L91.2391 28.9ZM88.2991 27.136H90.8331L89.6991 22.124H89.4471L88.2991 27.136ZM101.463 31H99.6153V28.06C99.6153 27.836 99.5547 27.654 99.4333 27.514C99.3213 27.374 99.13 27.304 98.8593 27.304H96.7313V31H94.8833V21.2H98.6353C99.1393 21.2 99.5827 21.27 99.9653 21.41C100.348 21.55 100.665 21.746 100.917 21.998C101.179 22.2407 101.375 22.5253 101.505 22.852C101.645 23.1787 101.715 23.5287 101.715 23.902V24.238C101.715 24.6393 101.608 25.0173 101.393 25.372C101.179 25.7173 100.847 25.9833 100.399 26.17V26.422C100.726 26.4593 100.983 26.5853 101.169 26.8C101.365 27.0147 101.463 27.2853 101.463 27.612V31ZM96.7313 25.54H98.4953C98.9433 25.54 99.284 25.4373 99.5173 25.232C99.7507 25.0173 99.8673 24.7187 99.8673 24.336V24.168C99.8673 23.8413 99.7507 23.5613 99.5173 23.328C99.284 23.0853 98.9433 22.964 98.4953 22.964H96.7313V25.54ZM103.582 21.2H109.77V22.964H105.43V25.204H109.602V26.968H105.43V29.236H109.938V31H103.582V21.2ZM51.672 40.008C51.672 38.7387 51.9893 37.754 52.624 37.054C53.268 36.354 54.1547 36.004 55.284 36.004C56.4133 36.004 57.2953 36.354 57.93 37.054C58.574 37.754 58.896 38.7387 58.896 40.008V42.192C58.896 43.4987 58.574 44.4927 57.93 45.174C57.2953 45.8553 56.4133 46.196 55.284 46.196C54.1547 46.196 53.268 45.8553 52.624 45.174C51.9893 44.4927 51.672 43.4987 51.672 42.192V40.008ZM55.284 44.516C55.62 44.516 55.9 44.4647 56.124 44.362C56.348 44.25 56.53 44.096 56.67 43.9C56.81 43.704 56.908 43.4707 56.964 43.2C57.02 42.9293 57.048 42.6307 57.048 42.304V39.896C57.048 39.588 57.0153 39.2987 56.95 39.028C56.8847 38.7573 56.782 38.524 56.642 38.328C56.502 38.132 56.32 37.978 56.096 37.866C55.872 37.7447 55.6013 37.684 55.284 37.684C54.9667 37.684 54.696 37.7447 54.472 37.866C54.248 37.978 54.066 38.132 53.926 38.328C53.786 38.524 53.6833 38.7573 53.618 39.028C53.5527 39.2987 53.52 39.588 53.52 39.896V42.304C53.52 42.6307 53.548 42.9293 53.604 43.2C53.66 43.4707 53.758 43.704 53.898 43.9C54.038 44.096 54.22 44.25 54.444 44.362C54.668 44.4647 54.948 44.516 55.284 44.516ZM67.3843 36.2V42.612C67.3843 43.732 67.0856 44.6093 66.4883 45.244C65.9003 45.8787 65.0229 46.196 63.8563 46.196C62.6896 46.196 61.8076 45.8787 61.2103 45.244C60.6223 44.6093 60.3283 43.732 60.3283 42.612V36.2H62.1763V42.612C62.1763 43.1907 62.3116 43.6433 62.5823 43.97C62.8529 44.2967 63.2776 44.46 63.8563 44.46C64.4349 44.46 64.8596 44.2967 65.1303 43.97C65.4009 43.6433 65.5363 43.1907 65.5363 42.612V36.2H67.3843ZM74.1085 39.196C74.1085 38.804 73.9545 38.4633 73.6465 38.174C73.3479 37.8847 72.9232 37.74 72.3725 37.74C71.9059 37.74 71.5372 37.838 71.2665 38.034C70.9959 38.2207 70.8605 38.4773 70.8605 38.804C70.8605 38.972 70.8932 39.126 70.9585 39.266C71.0239 39.3967 71.1359 39.518 71.2945 39.63C71.4625 39.7327 71.6772 39.826 71.9385 39.91C72.2092 39.994 72.5499 40.0733 72.9605 40.148C73.9872 40.3347 74.7712 40.6473 75.3125 41.086C75.8539 41.5247 76.1245 42.1733 76.1245 43.032V43.2C76.1245 43.6573 76.0405 44.0727 75.8725 44.446C75.7139 44.81 75.4805 45.1227 75.1725 45.384C74.8645 45.6453 74.4912 45.846 74.0525 45.986C73.6139 46.126 73.1192 46.196 72.5685 46.196C71.9245 46.196 71.3552 46.1073 70.8605 45.93C70.3752 45.7433 69.9692 45.4913 69.6425 45.174C69.3159 44.8473 69.0685 44.4693 68.9005 44.04C68.7325 43.6013 68.6485 43.1253 68.6485 42.612V42.192H70.4965V42.528C70.4965 43.116 70.6645 43.5873 71.0005 43.942C71.3459 44.2873 71.8779 44.46 72.5965 44.46C73.1565 44.46 73.5719 44.3387 73.8425 44.096C74.1132 43.8533 74.2485 43.564 74.2485 43.228C74.2485 43.0693 74.2205 42.92 74.1645 42.78C74.1085 42.6307 74.0105 42.5 73.8705 42.388C73.7305 42.2667 73.5392 42.1593 73.2965 42.066C73.0539 41.9727 72.7459 41.8933 72.3725 41.828C71.8779 41.744 71.4252 41.6367 71.0145 41.506C70.6039 41.366 70.2445 41.184 69.9365 40.96C69.6379 40.736 69.4045 40.456 69.2365 40.12C69.0685 39.784 68.9845 39.3733 68.9845 38.888V38.804C68.9845 38.4027 69.0639 38.034 69.2225 37.698C69.3905 37.3527 69.6192 37.054 69.9085 36.802C70.2072 36.55 70.5619 36.354 70.9725 36.214C71.3925 36.074 71.8592 36.004 72.3725 36.004C72.9512 36.004 73.4645 36.088 73.9125 36.256C74.3605 36.4147 74.7339 36.634 75.0325 36.914C75.3405 37.194 75.5692 37.516 75.7185 37.88C75.8772 38.244 75.9565 38.6267 75.9565 39.028V39.532H74.1085V39.196ZM77.8648 36.2H84.0528V37.964H79.7128V40.204H83.8848V41.968H79.7128V44.236H84.2208V46H77.8648V36.2Z" fill="#1E1E1E"/>
<path d="M44.926 16H43.078V6.2H44.926V10.218H45.332L47.922 6.2H50.008V6.284L46.984 10.974V11.226L50.176 15.916V16H48.006L45.332 11.982H44.926V16ZM47.964 24.196C47.964 23.804 47.81 23.4633 47.502 23.174C47.2033 22.8847 46.7787 22.74 46.228 22.74C45.7613 22.74 45.3927 22.838 45.122 23.034C44.8513 23.2207 44.716 23.4773 44.716 23.804C44.716 23.972 44.7487 24.126 44.814 24.266C44.8793 24.3967 44.9913 24.518 45.15 24.63C45.318 24.7327 45.5327 24.826 45.794 24.91C46.0647 24.994 46.4053 25.0733 46.816 25.148C47.8427 25.3347 48.6267 25.6473 49.168 26.086C49.7093 26.5247 49.98 27.1733 49.98 28.032V28.2C49.98 28.6573 49.896 29.0727 49.728 29.446C49.5693 29.81 49.336 30.1227 49.028 30.384C48.72 30.6453 48.3467 30.846 47.908 30.986C47.4693 31.126 46.9747 31.196 46.424 31.196C45.78 31.196 45.2107 31.1073 44.716 30.93C44.2307 30.7433 43.8247 30.4913 43.498 30.174C43.1713 29.8473 42.924 29.4693 42.756 29.04C42.588 28.6013 42.504 28.1253 42.504 27.612V27.192H44.352V27.528C44.352 28.116 44.52 28.5873 44.856 28.942C45.2013 29.2873 45.7333 29.46 46.452 29.46C47.012 29.46 47.4273 29.3387 47.698 29.096C47.9687 28.8533 48.104 28.564 48.104 28.228C48.104 28.0693 48.076 27.92 48.02 27.78C47.964 27.6307 47.866 27.5 47.726 27.388C47.586 27.2667 47.3947 27.1593 47.152 27.066C46.9093 26.9727 46.6013 26.8933 46.228 26.828C45.7333 26.744 45.2807 26.6367 44.87 26.506C44.4593 26.366 44.1 26.184 43.792 25.96C43.4933 25.736 43.26 25.456 43.092 25.12C42.924 24.784 42.84 24.3733 42.84 23.888V23.804C42.84 23.4027 42.9193 23.034 43.078 22.698C43.246 22.3527 43.4747 22.054 43.764 21.802C44.0627 21.55 44.4173 21.354 44.828 21.214C45.248 21.074 45.7147 21.004 46.228 21.004C46.8067 21.004 47.32 21.088 47.768 21.256C48.216 21.4147 48.5893 21.634 48.888 21.914C49.196 22.194 49.4247 22.516 49.574 22.88C49.7327 23.244 49.812 23.6267 49.812 24.028V24.532H47.964V24.196ZM42.854 36.2H44.702V40.204H47.866V36.2H49.714V46H47.866V41.968H44.702V46H42.854V36.2Z" fill="white"/>
</svg>
